<?xml version="1.0" encoding="utf-8"?>
<!-- Generator: Adobe Illustrator 21.1.0, SVG Export Plug-In . SVG Version: 6.00 Build 0)  -->
<svg version="1.1" id="Laag_1" xmlns="http://www.w3.org/2000/svg" xmlns:xlink="http://www.w3.org/1999/xlink" x="0px" y="0px"
	 viewBox="0 0 200 200" style="enable-background:new 0 0 200 200;" xml:space="preserve">
<style type="text/css">
	.st0{fill:#2CA0CB;}
</style>
<g>
	<g>
		<g>
			<path class="st0" d="M69.6,102.4c0.1-2,0.2-4.1,0.5-6.1c0.5-4.9,1.5-9.7,2.6-14.5c0.7-2.4,1.4-4.7,2.1-7c1-2.2,1.9-4.4,2.8-6.6
				c2.1-4.2,4.5-8.2,7.3-11.5c0.7-0.9,1.3-1.7,2-2.5c0.7-0.7,1.5-1.5,2.2-2.2c1.5-1.4,2.8-2.8,4.3-3.9c3-2.2,5.6-4.3,8.3-5.6
				c2.6-1.5,4.8-2.7,6.8-3.4c3.9-1.6,6.2-2.4,6.2-2.4s-1.9,1.5-5.2,4c-1.7,1.1-3.5,2.9-5.7,4.7c-2.3,1.7-4.3,4.2-6.8,6.6
				c-1.2,1.2-2.2,2.7-3.3,4.2c-0.6,0.7-1.1,1.4-1.7,2.2c-0.5,0.8-1,1.6-1.5,2.5c-2.2,3.2-3.8,6.9-5.4,10.7c-0.7,2-1.4,4-2.1,6
				c-0.5,2.1-1,4.3-1.6,6.4c-0.9,4.4-1.7,8.9-2.1,13.4c-0.3,1.7-0.4,3.3-0.5,5c36.5,0,64.8,0,104.3,0c0.1-1.7,0.2-3.5,0.2-5.3
				c0-33.3-24.3-60.8-55.5-64.4c2-1.9,3.3-4.6,3.3-7.5c0-5.7-4.6-10.3-10.3-10.3c-5.7,0-10.4,4.6-10.4,10.3c0,3,1.3,5.7,3.3,7.5
				c-31.2,3.6-55.5,31.1-55.5,64.4c0,1.8,0.1,3.5,0.2,5.2C62.2,102.4,65.9,102.4,69.6,102.4z"/>
			<rect x="46.8" y="106.3" class="st0" width="147.9" height="13"/>
			<path class="st0" d="M134,128.6c-7.5,3.7-33.7,13.1-33.7,13.1l-31-1.9c0,0,17.7-4.9,24.6-6.5c6.9-1.5,3.9-9.3,0.1-9.3
				c-3.8,0-37,1.4-37,1.4l-22,7.9l5.8,36.9c0,0,4.5-7.8,9.1-7.8c4.5,0,43.9,1,49.2,0c5.3-1.1,37.9-23.3,41.8-25.9
				C144.6,133.9,141.5,124.9,134,128.6z"/>
			<polygon class="st0" points="5.3,137.3 5.3,185.1 39.1,178.7 30.6,132.8 			"/>
		</g>
	</g>
	<g>
	</g>
	<g>
	</g>
	<g>
	</g>
	<g>
	</g>
	<g>
	</g>
	<g>
	</g>
	<g>
	</g>
	<g>
	</g>
	<g>
	</g>
	<g>
	</g>
	<g>
	</g>
	<g>
	</g>
	<g>
	</g>
	<g>
	</g>
	<g>
	</g>
</g>
</svg>
