<?xml version="1.0" encoding="utf-8"?>
<!-- Generator: Adobe Illustrator 21.1.0, SVG Export Plug-In . SVG Version: 6.00 Build 0)  -->
<svg version="1.1" id="Laag_1" xmlns="http://www.w3.org/2000/svg" xmlns:xlink="http://www.w3.org/1999/xlink" x="0px" y="0px"
	 viewBox="0 0 200 200" style="enable-background:new 0 0 200 200;" xml:space="preserve">
<style type="text/css">
	.st0{fill:#2CA0CB;}
</style>
<g>
	<path class="st0" d="M181.4,16.6c1.7-2.1,2.1-5,1-7.4c-1.1-2.5-3.6-4-6.3-4H29.4c-2.7,0-5.2,1.6-6.3,4s-0.8,5.3,1,7.4l71.7,85v73
		H72c-3.8,0-7,3.1-7,7c0,3.8,3.1,7,7,7h61.6c3.8,0,7-3.1,7-7c0-3.8-3.1-7-7-7h-23.8v-73L181.4,16.6z M161.1,19.1l-58.4,69.2
		L44.3,19.1H161.1z"/>
	<g>
	</g>
	<g>
	</g>
	<g>
	</g>
	<g>
	</g>
	<g>
	</g>
	<g>
	</g>
	<g>
	</g>
	<g>
	</g>
	<g>
	</g>
	<g>
	</g>
	<g>
	</g>
	<g>
	</g>
	<g>
	</g>
	<g>
	</g>
	<g>
	</g>
</g>
</svg>
