<?xml version="1.0" encoding="utf-8"?>
<!-- Generator: Adobe Illustrator 21.1.0, SVG Export Plug-In . SVG Version: 6.00 Build 0)  -->
<svg version="1.1" id="Laag_1" xmlns="http://www.w3.org/2000/svg" xmlns:xlink="http://www.w3.org/1999/xlink" x="0px" y="0px"
	 viewBox="0 0 200 200" style="enable-background:new 0 0 200 200;" xml:space="preserve">
<style type="text/css">
	.st0{fill:#2CA0CB;}
</style>
<g>
	<g>
		<g>
			<path class="st0" d="M193.1,97.5l-11-6.4l-6.3-26.8c-1.7-7.1-7.9-12.1-15.3-12.1h-31.5v-5c0-2.1-1.7-3.8-3.8-3.8H8.8
				c-2.1,0-3.8,1.7-3.8,3.8v90.2c0,2.1,1.7,3.8,3.8,3.8h12.2c1.8,8.6,9.4,15.2,18.6,15.2s16.8-6.5,18.6-15.2h76.6v0
				c1.8,8.6,9.4,15.2,18.6,15.2s16.8-6.5,18.6-15.2h19.4c2.1,0,3.8-1.7,3.8-3.8v-36.7C195,99.4,194.3,98.2,193.1,97.5z M39.5,148.9
				c-6.3,0-11.4-5.1-11.4-11.4c0-6.3,5.1-11.4,11.4-11.4c6.3,0,11.4,5.1,11.4,11.4C50.9,143.8,45.8,148.9,39.5,148.9z M121.6,120.2
				H87.4c-2.1,0-3.8,1.7-3.8,3.8c0,2.1,1.7,3.8,3.8,3.8h34.1v6H58.1c-1.8-8.6-9.4-15.2-18.6-15.2s-16.8,6.5-18.6,15.2h-8.4v-19.6
				h109L121.6,120.2L121.6,120.2z M121.6,56.1v50.5h-109V51.1h109V56.1z M151.1,59.9h9.5c3.8,0,7,2.6,7.9,6.3l5.5,23.7h-23
				L151.1,59.9L151.1,59.9z M153.3,148.9c-6,0-11-4.7-11.4-10.6c0.1-0.2,0.1-0.5,0.1-0.8c0-0.3,0-0.5-0.1-0.8
				c0.4-5.9,5.3-10.6,11.4-10.6c6.3,0,11.4,5.1,11.4,11.4C164.7,143.8,159.6,148.9,153.3,148.9z M187.4,115.8h-7.2v-4h7.2V115.8z
				 M187.4,104.2h-11c-2.1,0-3.8,1.7-3.8,3.8v11.6c0,2.1,1.7,3.8,3.8,3.8h11v10.4h-15.6c-1.8-8.6-9.4-15.2-18.6-15.2
				c-9.2,0-16.8,6.5-18.6,15.2h-5.6V59.9h14.4v33.7c0,2.1,1.7,3.8,3.8,3.8h30.5l9.6,5.6L187.4,104.2L187.4,104.2z"/>
		</g>
	</g>
	<g>
		<g>
			<path class="st0" d="M74.6,120.2h-3.2c-2.1,0-3.8,1.7-3.8,3.8c0,2.1,1.7,3.8,3.8,3.8h3.2c2.1,0,3.8-1.7,3.8-3.8
				C78.4,121.9,76.7,120.2,74.6,120.2z"/>
		</g>
	</g>
	<g>
	</g>
	<g>
	</g>
	<g>
	</g>
	<g>
	</g>
	<g>
	</g>
	<g>
	</g>
	<g>
	</g>
	<g>
	</g>
	<g>
	</g>
	<g>
	</g>
	<g>
	</g>
	<g>
	</g>
	<g>
	</g>
	<g>
	</g>
	<g>
	</g>
</g>
</svg>
